<svg width="534" height="341" fill="none" xmlns="http://www.w3.org/2000/svg"><g filter="url(#filter0_d_1_1115)"><rect x="20" y="12" width="493.193" height="301" rx="24" fill="url(#paint0_linear_1_1115)"/></g><g clip-path="url(#clip0_1_1115)"><path d="M266.443 283.746c10.482 0 18.979-8.505 18.979-18.996 0-10.491-8.497-18.996-18.979-18.996s-18.979 8.505-18.979 18.996c0 10.491 8.497 18.996 18.979 18.996z" fill="#FFCB75"/><path d="M379.824 282.679c10.618-3.192 21.906-6.52 30.327-14.107 7.524-6.78 12.604-17.133 9.487-27.301-3.111-10.148-12.429-16.914-22.049-20.279-5.457-1.909-11.165-2.967-16.871-3.799-6.204-.904-12.434-1.645-18.662-2.358a856.972 856.972 0 00-75.934-5.291c-12.536-.316-25.07-.308-37.608-.126-11.198.163-22.99.159-33.378-4.605-8.078-3.704-15.409-10.443-17.66-19.299-2.598-10.222 2.194-20.633 9.068-28.036 3.624-3.903 7.859-7.187 12.228-10.207 4.739-3.277 9.644-6.321 14.655-9.163a203.916 203.916 0 0130.848-14.234c5.259-1.914 10.596-3.565 15.979-5.089 4.545-1.286 9.105-2.574 13.498-4.326 8.492-3.388 16.57-9.127 18.729-18.535 2.047-8.916-1.404-18.595-7.453-25.22-6.999-7.662-17.552-11.022-27.668-11.565-11.358-.61-22.454 2.235-33.13 5.845-11.386 3.852-22.527 8.28-34.153 11.4a229.62 229.62 0 01-35.151 6.54c-5.81.619-11.796 1.318-17.64.844-4.899-.398-9.772-1.84-13.382-5.319-3.096-2.984-4.94-7.084-4.306-11.411.115-.786 1.308-.452 1.194.33-.772 5.267 2.805 10.12 7.214 12.607 5.094 2.873 11.294 2.877 16.966 2.548a221.708 221.708 0 0036.52-5.284c11.797-2.697 23.172-6.552 34.535-10.67 10.791-3.912 21.824-7.729 33.353-8.576 10.004-.735 20.527.723 29.242 5.956 7.659 4.599 13.292 12.268 15.086 21.068 1.754 8.6-.675 17.256-7.179 23.257-6.734 6.214-15.967 8.87-24.572 11.317-10.914 3.103-21.594 6.73-31.931 11.44a200.35 200.35 0 00-30.036 16.901c-9.179 6.278-18.237 14.178-21.14 25.377-1.352 5.217-1.103 10.75 1.16 15.678 2.012 4.382 5.325 8.067 9.185 10.91 9.209 6.782 20.816 8.175 31.94 8.314 12.494.155 24.988-.267 37.486-.062a858.114 858.114 0 0195.297 6.888c5.703.734 11.425 1.463 17.031 2.765 9.969 2.316 19.67 6.769 25.866 15.229a25.332 25.332 0 014.929 12.573c.434 4.759-.73 9.527-2.88 13.76-4.758 9.37-13.67 15.33-23.135 19.246-5.069 2.097-10.327 3.686-15.576 5.264-.764.229-1.091-.966-.329-1.195z" fill="#F2F2F2"/><path d="M140.397 77.06c5.469 0 9.903-4.437 9.903-9.91 0-5.474-4.434-9.912-9.903-9.912-5.468 0-9.902 4.438-9.902 9.912 0 5.473 4.434 9.91 9.902 9.91zm68.696 18.79c5.469 0 9.902-4.437 9.902-9.91 0-5.475-4.433-9.912-9.902-9.912-5.469 0-9.902 4.437-9.902 9.911 0 5.474 4.433 9.911 9.902 9.911zm58.175-37.58c5.469 0 9.902-4.436 9.902-9.91s-4.433-9.911-9.902-9.911c-5.469 0-9.902 4.437-9.902 9.91 0 5.475 4.433 9.912 9.902 9.912zm36.308 42.123c5.468 0 9.902-4.438 9.902-9.911 0-5.474-4.434-9.911-9.902-9.911-5.469 0-9.903 4.437-9.903 9.91 0 5.474 4.434 9.912 9.903 9.912zm-49.098 48.729c5.469 0 9.902-4.438 9.902-9.911 0-5.474-4.433-9.911-9.902-9.911-5.469 0-9.902 4.437-9.902 9.911 0 5.473 4.433 9.911 9.902 9.911zm-62.301 23.538c5.469 0 9.902-4.437 9.902-9.911 0-5.473-4.433-9.911-9.902-9.911-5.469 0-9.902 4.438-9.902 9.911 0 5.474 4.433 9.911 9.902 9.911zm66.014 36.754c5.469 0 9.902-4.438 9.902-9.911 0-5.474-4.433-9.911-9.902-9.911-5.469 0-9.902 4.437-9.902 9.911 0 5.473 4.433 9.911 9.902 9.911zm70.965 20.648c5.469 0 9.902-4.438 9.902-9.911 0-5.474-4.433-9.911-9.902-9.911-5.469 0-9.902 4.437-9.902 9.911 0 5.473 4.433 9.911 9.902 9.911zm82.93-4.543c5.469 0 9.902-4.437 9.902-9.911 0-5.474-4.433-9.911-9.902-9.911-5.469 0-9.902 4.437-9.902 9.911 0 5.474 4.433 9.911 9.902 9.911z" fill="#F2F2F2"/><path d="M264.41 66.531c-29.662.21-53.948 24.336-54.37 54.022-.004.274-.006 2.201-.005 4.722 0 3.696 1.467 7.24 4.078 9.854a13.92 13.92 0 009.844 4.082 13.933 13.933 0 0013.929-13.957l-.002-2.975a26.44 26.44 0 0112.937-22.738 26.389 26.389 0 0135.946 8.863 26.444 26.444 0 01-8.235 36.125l.005.006s-19.816 12.769-25.857 30.285l.005.001a38.844 38.844 0 00-1.598 11.054c0 1.538.09 14.999.265 25.925a14.37 14.37 0 004.286 10.008A14.353 14.353 0 00278.994 217a14.381 14.381 0 001.067-5.526c-.06-10.006-.093-21.656-.093-22.502 0-10.755 10.366-21.471 18.881-28.46 9.806-8.047 16.862-19.014 19.696-31.384a35.854 35.854 0 001.031-7.778 54.87 54.87 0 00-4.207-21.07 54.817 54.817 0 00-11.975-17.833 54.73 54.73 0 00-38.984-15.915z" fill="#FFCB75"/><path d="M436.466 284.267H88.947a.49.49 0 01-.347-.839.49.49 0 01.347-.144h347.519a.492.492 0 110 .983z" fill="#3F3D56"/><path d="M347.746 151.185c6.835 0 12.377-5.547 12.377-12.389s-5.542-12.389-12.377-12.389c-6.836 0-12.378 5.547-12.378 12.389s5.542 12.389 12.378 12.389z" fill="#2F2E41"/><path d="M324.873 278.844h-5.058l-2.407-19.528h7.466l-.001 19.528z" fill="#A0616A"/><path d="M316.202 277.397h9.755v6.148H310.06a6.143 6.143 0 016.142-6.148z" fill="#2F2E41"/><path d="M364.069 278.844h-5.058l-2.407-19.528h7.466l-.001 19.528z" fill="#A0616A"/><path d="M355.398 277.397h9.755v6.148h-15.898a6.15 6.15 0 016.143-6.148z" fill="#2F2E41"/><path d="M345.865 151.257c5.596 0 10.133-4.541 10.133-10.143 0-5.601-4.537-10.142-10.133-10.142-5.597 0-10.134 4.541-10.134 10.142 0 5.602 4.537 10.143 10.134 10.143z" fill="#A0616A"/><path d="M351.904 183.978l4.535-10.427a12.964 12.964 0 00-2.868-14.702 13.023 13.023 0 00-1.267-1.102 12.75 12.75 0 00-7.834-2.713c-1.91.007-3.796.427-5.529 1.23-.149.066-.293.137-.442.207a15.06 15.06 0 00-.837.437 13.08 13.08 0 00-6.478 9.862l-2.001 16.783c-.503 1.317-18.459 48.89-12.179 85.209a1.847 1.847 0 001.576 1.516l6.366.867a1.855 1.855 0 002.067-1.458l10.682-50.963a1.444 1.444 0 012.805-.095l15.093 53.594a1.843 1.843 0 001.778 1.355 2.05 2.05 0 00.359-.034l7.777-1.499a1.844 1.844 0 001.498-1.986c-1.143-12.756-7.216-76.653-15.101-86.081z" fill="#2F2E41"/><path d="M306.483 149.555a4.168 4.168 0 00.183 1.791 4.164 4.164 0 002.412 2.553 4.16 4.16 0 001.776.283l5.664 13.624 4.285-6.357-6.036-11.963a4.168 4.168 0 00-6.934-2.571 4.174 4.174 0 00-1.35 2.64zm38.82 48.142a4.163 4.163 0 002.982-1.854 4.157 4.157 0 00.494-3.479l11.918-8.688-7.175-2.689-10.217 8.662a4.177 4.177 0 001.998 8.048z" fill="#A0616A"/><path d="M325.875 176.89a7.065 7.065 0 01-1.361-.135 6.729 6.729 0 01-4.93-3.971l-7.936-9.685a1.857 1.857 0 01-.106-2.214c.147-.22.34-.405.565-.545l5.646-3.498a1.855 1.855 0 012.564.615l5.593 9.223 10.712-7.923a4.008 4.008 0 015.107 1.196 4.015 4.015 0 01-.441 5.23l-10.691 9.761a6.703 6.703 0 01-4.722 1.946zm28.943 14.566l-.044-.001a1.85 1.85 0 01-1.366-.648l-5.02-5.862a1.85 1.85 0 01-.429-1.463 1.857 1.857 0 01.809-1.292l9.399-6.272-8.515-10.247a4.018 4.018 0 01.9-5.171 4.01 4.01 0 015.243.141l10.349 10.122a6.831 6.831 0 01.956 8.996c-.64.9-1.489 1.63-2.473 2.129l-8.458 8.984a1.855 1.855 0 01-1.351.584z" fill="#2F2E41"/><path d="M343.288 169.858a1.846 1.846 0 01-1.772-1.282l-3.772-11.575a1.272 1.272 0 01.658-1.538l.122-.058c.111-.053.221-.105.333-.155a13.423 13.423 0 015.613-1.249c2.517.005 4.977.745 7.08 2.13a1.295 1.295 0 01.372 1.773l-7.076 11.095a1.837 1.837 0 01-1.558.859z" fill="#E6E6E6"/><path d="M357.504 133.265a4.052 4.052 0 004.05-4.054 4.052 4.052 0 00-4.05-4.053 4.052 4.052 0 00-4.05 4.053 4.052 4.052 0 004.05 4.054z" fill="#2F2E41"/><path d="M343.62 124.755a10.727 10.727 0 00-7.586 3.145 10.747 10.747 0 00-3.142 7.592v4.543h5.582l2.67-4.543.801 4.543h16.94l-4.538-4.543c0-2.847-1.13-5.578-3.142-7.592a10.725 10.725 0 00-7.585-3.145zm15.966 1.68a6.254 6.254 0 016.8-4.293c2.581.432 4.621 2.508 5.837 4.828 1.216 2.319 1.778 4.915 2.595 7.403.818 2.488 1.977 4.99 4.041 6.601 2.064 1.611 5.23 2.047 7.257.391a8.31 8.31 0 01-6.665 7.054 8.297 8.297 0 01-8.797-4.089c-1.07-1.904-1.346-4.136-1.663-6.298-.317-2.161-.729-4.398-2.006-6.17-1.277-1.772-3.667-2.929-5.695-2.122l-1.704-3.305z" fill="#2F2E41"/><path d="M227.888 132.619a13.916 13.916 0 01-9.844-4.082 13.941 13.941 0 01-4.078-9.853c-.001-2.521.001-4.448.005-4.722a54.344 54.344 0 016.337-24.74 54.456 54.456 0 00-10.463 31.347c-.004.274-.005 2.201-.005 4.722a13.94 13.94 0 004.078 9.853 13.918 13.918 0 009.844 4.083 13.93 13.93 0 008.404-2.827 13.945 13.945 0 005-7.328 13.865 13.865 0 01-9.278 3.547zm37.465-36.724a26.39 26.39 0 0112.11 3.608 26.433 26.433 0 0112.966 20.848 26.45 26.45 0 01-2.111 12.468 26.46 26.46 0 001.93-31.696 26.395 26.395 0 00-29.881-10.672 26.394 26.394 0 00-9.789 5.566 26.44 26.44 0 00-6.583 9.14 26.352 26.352 0 0121.358-9.262zm4.284 123.446a14.348 14.348 0 01-10.068-4.125 14.368 14.368 0 01-4.286-10.008 2625.454 2625.454 0 01-.265-25.924 38.838 38.838 0 011.598-11.054l-.005-.002a39.24 39.24 0 012.267-5.245 45.469 45.469 0 00-6.393 11.853l.005.001a38.874 38.874 0 00-1.598 11.054c0 1.538.09 14.999.265 25.924a14.37 14.37 0 004.286 10.009 14.347 14.347 0 0018.68 1.25 14.368 14.368 0 005.169-7.47 14.29 14.29 0 01-9.655 3.737z" fill="#3F3D56"/><path d="M140.665 279.032h5.058l2.406-19.528h-7.465l.001 19.528z" fill="#FFB8B8"/><path d="M155.478 283.733l-15.897.001v-6.148l9.755-.001a6.149 6.149 0 016.142 6.148z" fill="#2F2E41"/><path d="M122.511 279.032h5.058l2.407-19.528h-7.466l.001 19.528z" fill="#FFB8B8"/><path d="M137.324 283.733l-15.897.001v-6.148l9.755-.001a6.149 6.149 0 016.142 6.148zm-10.393-10.707l-4.94-.26a1.916 1.916 0 01-1.34-.644 1.921 1.921 0 01-.483-1.407l5.905-65.44 27.194 7.345 2.62-.715-8.193 57.931a1.94 1.94 0 01-1.799 1.629l-5.326.249a1.92 1.92 0 01-1.893-1.201 1.91 1.91 0 01-.141-.78l.965-34.769a.646.646 0 00-.568-.657.64.64 0 00-.704.508l-9.307 36.676a1.921 1.921 0 01-1.885 1.538c-.035 0-.07 0-.105-.003z" fill="#2F2E41"/><path d="M141.573 151.732c5.597 0 10.134-4.541 10.134-10.143s-4.537-10.143-10.134-10.143-10.134 4.541-10.134 10.143 4.537 10.143 10.134 10.143z" fill="#FFB8B8"/><path d="M124.701 171.388l1.115 24.062.402 8.754a1.921 1.921 0 001.269 1.724l26.131 9.475c.211.078.435.117.66.115a1.912 1.912 0 001.925-1.977l-1.072-43.264a15.257 15.257 0 00-3.691-9.653 15.239 15.239 0 00-8.993-5.081c-.253-.038-.51-.077-.767-.111a14.945 14.945 0 00-12.033 3.899 15.384 15.384 0 00-4.946 12.057z" fill="#CCC"/><path d="M166.101 210.601a4.16 4.16 0 01-2.685-2.587 4.156 4.156 0 01.47-3.701l-8.861-11.794 7.647-.473 7.242 11.272a4.172 4.172 0 011.524 2.413 4.178 4.178 0 01-2.487 4.752 4.17 4.17 0 01-2.85.118z" fill="#FFB8B8"/><path d="M159.871 202.179a1.925 1.925 0 01-1.049-1.04l-13.35-31.837a5.152 5.152 0 011.086-5.617 5.15 5.15 0 013.631-1.525 5.139 5.139 0 014.766 3.159l13.35 31.837a1.933 1.933 0 01-1.031 2.526l-5.927 2.49a1.909 1.909 0 01-1.476.007z" fill="#CCC"/><path d="M138.315 201.056l12.823-24.575a2.016 2.016 0 012.713-.852l18.612 9.73a2.015 2.015 0 01.851 2.715l-12.822 24.575a2.018 2.018 0 01-2.713.852l-18.613-9.73a2.016 2.016 0 01-.851-2.715z" fill="#3F3D56"/><path d="M146.915 189.829a4.155 4.155 0 00-4.652-2.621 4.15 4.15 0 00-1.751.779l-12.286-8.158-.021 7.669 11.671 6.57a4.171 4.171 0 005.295.833 4.176 4.176 0 001.744-5.072z" fill="#FFB8B8"/><path d="M131.381 191.553l-10.041-7.961a7.097 7.097 0 01-4.683-8.143 7.081 7.081 0 011.455-3.063l9.117-11.959a4.163 4.163 0 017.181 1.34 4.17 4.17 0 01-.114 2.907l-7.213 11.811 10.601 5.033a1.934 1.934 0 011.083 2.014 1.94 1.94 0 01-.28.761l-4.279 6.778a1.934 1.934 0 01-1.306.872l-.032.005a1.947 1.947 0 01-1.489-.395z" fill="#CCC"/><path d="M133.916 148.381a.88.88 0 01.386-1.045.897.897 0 01.38-.12 2.027 2.027 0 011.434.709c.367.423.794.79 1.267 1.089.49.247 1.155.212 1.435-.26.262-.443.082-1.035-.077-1.55a15.255 15.255 0 01-.672-4.034c-.046-1.528.169-3.123 1.015-4.315 1.09-1.538 3.041-2.122 4.887-2.08 1.846.043 3.662.613 5.49.973.631.125 1.373.189 1.796-.301.449-.521.284-1.363.093-2.066-.496-1.825-1.021-3.711-2.173-5.184a7.79 7.79 0 00-4.976-2.804 11.926 11.926 0 00-5.554.631 14.895 14.895 0 00-7.296 5.087 12.08 12.08 0 00-2.301 8.92 11.011 11.011 0 004.078 6.96l.788-.61z" fill="#2F2E41"/><path d="M262.261 279.113a18.977 18.977 0 01-6.97-5.218 19.011 19.011 0 01-3.936-16.497 19.01 19.01 0 013.863-7.807 18.992 18.992 0 00-7.706 13.587 19.014 19.014 0 005.079 14.774 18.988 18.988 0 006.573 4.536 18.956 18.956 0 0015.601-.502 18.965 18.965 0 006.268-4.948 18.955 18.955 0 01-18.772 2.075z" fill="#3F3D56"/></g><circle cx="270.664" cy="161.992" r="48.302" fill="#fff"/><g clip-path="url(#clip1_1_1115)"><path d="M279.756 161.198l-15.742-7.87a1.398 1.398 0 00-1.993 1.254v15.735a1.4 1.4 0 00.663 1.2 1.405 1.405 0 001.371.054l15.701-7.871a1.405 1.405 0 000-2.508v.006z" fill="#915FC8"/></g><defs><clipPath id="clip0_1_1115"><path fill="#fff" transform="translate(88.456 38.449)" d="M0 0h348.502v245.818H0z"/></clipPath><clipPath id="clip1_1_1115"><path fill="#fff" transform="translate(257.953 150.297)" d="M0 0h24.405v24.405H0z"/></clipPath><linearGradient id="paint0_linear_1_1115" x1="513.192" y1="12" x2="-9.023" y2="221.648" gradientUnits="userSpaceOnUse"><stop stop-color="#714B9C"/><stop offset="1" stop-color="#9763D2"/></linearGradient><filter id="filter0_d_1_1115" x="0" y="0" width="533.193" height="341" filterUnits="userSpaceOnUse" color-interpolation-filters="sRGB"><feFlood flood-opacity="0" result="BackgroundImageFix"/><feColorMatrix in="SourceAlpha" values="0 0 0 0 0 0 0 0 0 0 0 0 0 0 0 0 0 0 127 0" result="hardAlpha"/><feOffset dy="8"/><feGaussianBlur stdDeviation="10"/><feComposite in2="hardAlpha" operator="out"/><feColorMatrix values="0 0 0 0 0 0 0 0 0 0 0 0 0 0 0 0 0 0 0.2 0"/><feBlend in2="BackgroundImageFix" result="effect1_dropShadow_1_1115"/><feBlend in="SourceGraphic" in2="effect1_dropShadow_1_1115" result="shape"/></filter></defs></svg>