<svg width="37" height="34" fill="none" xmlns="http://www.w3.org/2000/svg"><g clip-path="url(#clip0_2_527)"><path d="M36.484 8.9c-.194-1.49-1.72-2.917-3.318-3.109a129.323 129.323 0 00-29.33 0C2.236 5.982.71 7.411.516 8.9a63.874 63.874 0 000 16.202c.194 1.489 1.72 2.918 3.32 3.108a129.328 129.328 0 0029.33 0c1.597-.19 3.124-1.62 3.318-3.108a63.866 63.866 0 000-16.202zM15.416 22.667V11.334l9.25 5.667-9.25 5.667z" fill="#fff"/></g><defs><clipPath id="clip0_2_527"><path fill="#fff" d="M0 0h37v34H0z"/></clipPath></defs></svg>